<?xml version="1.0" standalone="no"?>
<!DOCTYPE svg PUBLIC "-//W3C//DTD SVG 20010904//EN"
 "http://www.w3.org/TR/2001/REC-SVG-20010904/DTD/svg10.dtd">
<svg version="1.0" xmlns="http://www.w3.org/2000/svg"
 width="640.000000pt" height="640.000000pt" viewBox="0 0 640.000000 640.000000"
 preserveAspectRatio="xMidYMid meet">
<metadata>
Created by potrace 1.14, written by Peter Selinger 2001-2017
</metadata>
<g transform="translate(0.000000,640.000000) scale(0.100000,-0.100000)"
fill="#000000" stroke="none">
<path d="M545 5427 c-90 -30 -162 -97 -202 -187 -19 -44 -23 -187 -5 -223 6
-15 18 -39 24 -54 7 -16 400 -416 873 -890 473 -474 860 -867 860 -873 0 -6
-387 -399 -861 -873 -699 -700 -865 -871 -884 -912 -27 -58 -34 -193 -12 -238
6 -15 18 -39 25 -54 19 -42 92 -110 145 -134 36 -17 67 -22 132 -23 75 -1 92
3 141 28 45 23 233 206 1051 1025 831 831 1000 1004 1019 1046 17 37 23 70 23
130 2 153 83 60 -1038 1183 -826 827 -1010 1007 -1055 1029 -63 31 -173 40
-236 20z"/>
<path d="M2917 1604 c-1 -1 -30 -4 -64 -7 -34 -3 -81 -15 -105 -27 -52 -24
-128 -88 -128 -107 0 -7 -4 -13 -9 -13 -8 0 -26 -38 -39 -85 -4 -11 -6 -54 -6
-95 1 -57 6 -87 23 -122 37 -77 115 -149 184 -169 67 -20 84 -21 217 -18 15 0
84 0 224 -2 39 0 73 -2 78 -5 4 -3 8 0 8 6 0 6 4 9 9 6 8 -5 204 -10 226 -6 6
1 14 2 19 1 7 -2 54 -2 106 0 8 0 74 0 145 0 72 0 137 -1 145 0 8 0 44 0 80
-1 36 0 104 1 153 2 48 2 87 1 87 -2 0 -4 97 -4 110 1 3 1 9 1 14 0 4 -1 27
-2 50 -1 22 0 50 0 61 0 11 0 40 1 65 1 25 0 50 0 55 0 11 0 262 -1 285 0 8 0
44 0 80 0 36 -1 72 -1 80 0 8 0 44 0 80 0 36 -1 72 -1 80 0 8 0 44 0 80 -1 36
0 104 1 153 2 48 2 87 1 87 -2 0 -4 97 -4 110 1 3 1 9 1 14 0 64 -12 170 5
231 36 150 76 216 266 145 417 -36 75 -114 147 -183 167 -67 20 -84 21 -217
18 -8 0 -44 0 -80 1 -36 0 -104 -1 -153 -2 -48 -2 -87 -1 -87 2 0 4 -97 4
-110 -1 -3 -1 -9 -1 -14 0 -4 1 -27 2 -50 1 -22 0 -50 0 -61 0 -11 0 -40 -1
-65 -1 -25 0 -49 0 -55 0 -11 0 -262 1 -285 0 -15 0 -89 0 -224 2 -39 0 -73 2
-78 5 -4 3 -8 0 -8 -6 0 -6 -4 -9 -9 -6 -8 5 -204 10 -226 6 -5 -1 -14 -2 -19
-1 -7 2 -54 2 -106 0 -8 0 -73 0 -145 0 -71 0 -137 1 -145 0 -8 0 -44 0 -80 1
-36 0 -104 -1 -153 -2 -48 -2 -87 -1 -87 2 0 4 -97 4 -110 -1 -3 -1 -9 -1 -14
0 -4 1 -27 2 -50 1 -22 0 -50 0 -61 0 -11 0 -40 -1 -65 -1 -53 0 -49 -1 -128
3 -35 2 -64 2 -65 2z"/>
</g>
</svg>
